<?xml version="1.0" standalone="no"?>
<svg version="1.2" xmlns="http://www.w3.org/2000/svg" xmlns:xlink="http://www.w3.org/1999/xlink" overflow="visible" preserveAspectRatio="none" viewBox="0 0 1202 1202" height="76" width="76" id="Layer_1_1594909478366"><g transform="translate(1, 1)"><defs><style>.cls-1_1594909478366{fill:#ffd420;}.cls-2_1594909478366{fill:#926300;}.cls-3_1594909478366{fill:#d6a833;}.cls-4_1594909478366{opacity:0.5;}.cls-5_1594909478366{fill:#fff;}</style></defs><g id="Icon_awesome-hard-hat_1594909478366"><path d="M600.69,1069.65c-336,0-508.95-70.37-516.15-73.37l-.75-.32C71.65,990.52,32,970,32,934.34V867.08a64.37,64.37,0,0,1,64.3-64.29H1105a64.39,64.39,0,0,1,64.33,64.36v67.19c0,23.28-21.23,37.26-55.49,52.28-20.34,8.92-56.19,22.53-111.38,36.71C920.21,1044.46,783.76,1069.65,600.69,1069.65ZM130,796.89a30.68,30.68,0,0,1-30.68-30.68V631.73A434.17,434.17,0,0,1,368.93,230.11,30.64,30.64,0,0,1,408,244.8l27.5,55.07V194.64a64.36,64.36,0,0,1,64.3-64.29H701.58a64.37,64.37,0,0,1,64.3,64.29V300l27.61-55.25a30.67,30.67,0,0,1,39.09-14.67,434.17,434.17,0,0,1,269.48,401.61V766.21a30.68,30.68,0,0,1-30.68,30.68Z" class="cls-1_1594909478366" vector-effect="non-scaling-stroke"/><path d="M701.58,161a33.61,33.61,0,0,1,33.61,33.61V430L820.94,258.5a403.49,403.49,0,0,1,250.44,373.23V766.21H130V631.73A403.5,403.5,0,0,1,380.56,258.5L466.19,430V194.64A33.62,33.62,0,0,1,499.81,161H701.58m403.48,672.44a33.62,33.62,0,0,1,33.58,33.65v67.22c0,18.56-204.22,104.63-537.95,104.63S96.33,968,96.33,968,62.72,952.9,62.72,934.34V867.08a33.61,33.61,0,0,1,33.61-33.61H1105.06M701.58,99.67H499.81a95.08,95.08,0,0,0-95,95v7.5a61.24,61.24,0,0,0-47.52-.42,464.85,464.85,0,0,0-288.7,430v134.5a62,62,0,0,0,.78,9.79,95.14,95.14,0,0,0-68,91.08v67.26c0,54.12,53.5,82.28,69.9,89.62l1.5.65c7.43,3.09,185.89,75.72,527.94,75.72,186.27,0,325.44-25.71,409.39-47.28,45.27-11.63,85.4-24.88,116.07-38.33,15-6.59,27.46-13.11,36.94-19.39A101.29,101.29,0,0,0,1180.62,981c16-16.76,19.38-34.61,19.38-46.64V867.12A95.12,95.12,0,0,0,1132,776a61.38,61.38,0,0,0,.77-9.75V631.73a464.82,464.82,0,0,0-288.53-430,61.27,61.27,0,0,0-47.65.47v-7.55a95.08,95.08,0,0,0-95-95Z" class="cls-2_1594909478366" vector-effect="non-scaling-stroke"/></g><path d="M1071.38,631.73A403.49,403.49,0,0,0,820.94,258.5l-23.48,47c273.92,130.76,273.92,460.75,273.92,460.75Z" class="cls-3_1594909478366" id="Icon_awesome-hard-hat-2_1594909478366" vector-effect="non-scaling-stroke"/><path d="M735.19,277V194.64A33.61,33.61,0,0,0,701.58,161H499.81a33.62,33.62,0,0,0-33.62,33.61V211C643.87,211,735.19,277,735.19,277Z" class="cls-3_1594909478366" id="Icon_awesome-hard-hat-3_1594909478366" vector-effect="non-scaling-stroke"/><g class="cls-4_1594909478366" id="Icon_awesome-hard-hat-4_1594909478366"><path d="M420.54,338.85l-40-80A403.5,403.5,0,0,0,130,632V766.52C197.35,593.74,242.1,397.8,420.54,338.85Z" class="cls-5_1594909478366" vector-effect="non-scaling-stroke"/></g><g class="cls-4_1594909478366" id="Icon_awesome-hard-hat-5_1594909478366"><path d="M62.72,867.08h0v67.26C62.72,952.9,96.33,968,96.33,968s170.64,71,504.36,71,538-86.07,538-104.63h0C888.18,1037.08,119.66,953,62.72,867.08Z" class="cls-5_1594909478366" vector-effect="non-scaling-stroke"/></g></g></svg>