<?xml version="1.0" standalone="no"?>
<svg version="1.2" xmlns="http://www.w3.org/2000/svg" xmlns:xlink="http://www.w3.org/1999/xlink" overflow="visible" preserveAspectRatio="none" viewBox="0 0 1202 1202" height="50" width="50" id="Layer_1_1594825762855"><g transform="translate(1, 1)"><defs><style>.cls-1_1594825762855{fill:#fff;}.cls-2_1594825762855{isolation:isolate;}.cls-3_1594825762855{fill:#c6c6c6;opacity:0.5;}.cls-4_1594825762855{fill:#221f20;}.cls-5_1594825762855{fill:#9d9d9c;}.cls-6_1594825762855{fill:#575756;stroke:#221f20;stroke-miterlimit:10;}.cls-7_1594825762855{fill:#1d1d1b;}</style></defs><circle r="229.01" cy="962.85" cx="877.21" class="cls-1_1594825762855" vector-effect="non-scaling-stroke"/><g class="cls-2_1594825762855" id="__1594825762855"><path d="M852.21,1190.91l-95.3-95.31,55.24-27.55,23.9-99.16L875.9,851.62l101.91,51.17,127.49,127.49s-55.47,162.13-218.39,162.13Z" class="cls-3_1594825762855" vector-effect="non-scaling-stroke"/><g class="cls-2_1594825762855"><path d="M857.24,990.53l-3.1,26.82q-2.92,19.87-18.43,35l116.75-.73-7.84,44H756.91l7.84-43.78,13.68.37a28.7,28.7,0,0,0,13.69-10.85q4.92-7.39,7.48-22.53l3.83-28.28H774.6l7.48-43h27.37l4.92-40.31q4.74-37.93,29.55-59.65t61.29-21q34.85.74,54.09,21.16t18.51,55.09l-51.07-.18q.91-31.74-24.81-32.29-12.76-.36-22,9.31t-12,26.26l-4.92,41.59H917.8l-7.48,43Z" class="cls-4_1594825762855" vector-effect="non-scaling-stroke"/></g></g><path d="M717.67,799.82c58.11-58.12,189.91-48,206.44-44.82V438.09H130.87V919.82a84.86,84.86,0,0,0,84.86,84.86H650.05C644.5,985.81,659.56,857.93,717.67,799.82ZM697.57,572.7a21.31,21.31,0,0,1,21.26-21.26h70.72A21.29,21.29,0,0,1,810.8,572.7v70.92a21.28,21.28,0,0,1-21.25,21.25H718.83a21.3,21.3,0,0,1-21.26-21.25Zm-340,297.53a21.31,21.31,0,0,1-21.26,21.26H265.47a21.29,21.29,0,0,1-21.25-21.26L244,799.4a21.31,21.31,0,0,1,21.26-21.26h71a21.31,21.31,0,0,1,21.26,21.26Zm0-226.61a21.3,21.3,0,0,1-21.26,21.25H265.47A21.28,21.28,0,0,1,244,643.74v-71a21.31,21.31,0,0,1,21.26-21.26h71a21.31,21.31,0,0,1,21.26,21.26ZM584.22,870.23A21.29,21.29,0,0,1,563,891.49H492.13a21.29,21.29,0,0,1-21.25-21.26V799.4a21.29,21.29,0,0,1,21.25-21.26H563a21.29,21.29,0,0,1,21.25,21.26Zm0-226.61A21.28,21.28,0,0,1,563,664.87H492.13a21.28,21.28,0,0,1-21.25-21.25V572.7a21.29,21.29,0,0,1,21.25-21.26H563a21.29,21.29,0,0,1,21.25,21.26Z" class="cls-5_1594825762855" vector-effect="non-scaling-stroke"/><path d="M130.87,334.51H924.23V249.65a84.86,84.86,0,0,0-84.53-85.19H754.39V79.6A28.28,28.28,0,0,0,726.1,51.32H669.53A28.29,28.29,0,0,0,641.24,79.6v84.86h-227V79.6a28.28,28.28,0,0,0-28.29-28.28H329.36A28.29,28.29,0,0,0,301.07,79.6v84.86H215.73a84.86,84.86,0,0,0-84.86,84.86v85.19Z" class="cls-6_1594825762855" vector-effect="non-scaling-stroke"/><path d="M878.3,764.17a205.17,205.17,0,0,1,145.59,60.09c38,38,58.94,88.31,58.94,141.64s-20.93,103.62-58.94,141.63a206.08,206.08,0,0,1-291.18,0c-38-38-58.93-88.31-58.93-141.63s20.93-103.63,58.93-141.64A205.17,205.17,0,0,1,878.3,764.17m0-36.38c-131.5,0-238.1,106.6-238.1,238.11S746.8,1204,878.3,1204s238.11-106.6,238.11-238.1S1009.8,727.79,878.3,727.79Z" class="cls-7_1594825762855" vector-effect="non-scaling-stroke"/><path d="M924.11,438.15v305.3c-16.53-3.2-102.4-21-187.42,41.2s-92.19,201.22-86.64,220.09H215.73a84.86,84.86,0,0,1-84.86-84.86V438.15H924.11m38.27-38.26H92.6v520A123.12,123.12,0,0,0,215.73,1043H688.65l-14.41-49a169.6,169.6,0,0,1-6.86-47.79c0-48.72,20.83-94.79,58.66-129.71l.53-.48.88-.79,2.8-2.53.06-.08,0,0,2.87-2.4a208.2,208.2,0,0,1,64.39-36.76,224.63,224.63,0,0,1,75.65-12.89,230,230,0,0,1,43.59,4.16l45.53,8.81V399.89Z" class="cls-7_1594825762855" vector-effect="non-scaling-stroke"/><path d="M726.1,51.32A28.28,28.28,0,0,1,754.39,79.6v84.86H839.7a84.86,84.86,0,0,1,84.53,85.19v84.86H130.87V249.32a84.86,84.86,0,0,1,84.86-84.86h85.34V79.6a28.29,28.29,0,0,1,28.29-28.28h56.57A28.28,28.28,0,0,1,414.22,79.6v84.86h227V79.6a28.29,28.29,0,0,1,28.29-28.28H726.1m0-38.27H669.53A66.63,66.63,0,0,0,603,79.6v46.6H452.49V79.6a66.63,66.63,0,0,0-66.56-66.55H329.36A66.63,66.63,0,0,0,262.81,79.6v46.6H215.73A123.12,123.12,0,0,0,92.6,249.32V372.78H962.5v-123A123.12,123.12,0,0,0,839.84,126.2H792.66V79.6A66.63,66.63,0,0,0,726.1,13.05Z" class="cls-7_1594825762855" vector-effect="non-scaling-stroke"/></g></svg>