<?xml version="1.0" standalone="no"?>
<svg version="1.2" xmlns="http://www.w3.org/2000/svg" xmlns:xlink="http://www.w3.org/1999/xlink" overflow="visible" preserveAspectRatio="none" viewBox="0 0 27.00000366134029 20.99998354498186" width="27.00000366134029" height="20.99998354498186"><g transform="translate(1, 1)"><g transform="translate(-0.000006338659711212577, -0.00000999999999995449) rotate(0)"><path d="M21.66254,2.91797h-2.91246l-0.66249,-1.54674c-0.1875,-0.39491 -0.49999,-0.73498 -0.89999,-0.96534c-0.38749,-0.25231 -0.86249,-0.39491 -1.34998,-0.40588h-6.67491c-0.48749,0.01097 -0.96249,0.15358 -1.34998,0.40588c-0.39999,0.23037 -0.71249,0.57043 -0.89999,0.96534l-0.66249,1.54674h-2.91246c-0.88749,-0.01097 -1.73748,0.29618 -2.34997,0.85565c-0.63749,0.53752 -0.99999,1.29444 -0.98749,2.07329v10.23483c-0.0125,0.77886 0.3375,1.5248 0.97499,2.06232c0.61249,0.55946 1.46248,0.86661 2.34997,0.85565h18.33726c1.83748,0 3.32496,-1.30541 3.33746,-2.91797v-10.23483c0,-1.61256 -1.49998,-2.92894 -3.33746,-2.92894z" style="stroke: rgb(35, 31, 32); stroke-width: 1; stroke-linecap: butt; stroke-linejoin: miter; fill: rgb(2, 164, 170);"/></g><defs><path id="path-159957946231119371" d="M21.66254,2.91797h-2.91246l-0.66249,-1.54674c-0.1875,-0.39491 -0.49999,-0.73498 -0.89999,-0.96534c-0.38749,-0.25231 -0.86249,-0.39491 -1.34998,-0.40588h-6.67491c-0.48749,0.01097 -0.96249,0.15358 -1.34998,0.40588c-0.39999,0.23037 -0.71249,0.57043 -0.89999,0.96534l-0.66249,1.54674h-2.91246c-0.88749,-0.01097 -1.73748,0.29618 -2.34997,0.85565c-0.63749,0.53752 -0.99999,1.29444 -0.98749,2.07329v10.23483c-0.0125,0.77886 0.3375,1.5248 0.97499,2.06232c0.61249,0.55946 1.46248,0.86661 2.34997,0.85565h18.33726c1.83748,0 3.32496,-1.30541 3.33746,-2.91797v-10.23483c0,-1.61256 -1.49998,-2.92894 -3.33746,-2.92894z"/></defs></g></svg>