<?xml version="1.0" standalone="no"?>
<svg version="1.2" xmlns="http://www.w3.org/2000/svg" xmlns:xlink="http://www.w3.org/1999/xlink" overflow="visible" preserveAspectRatio="none" viewBox="0 0 17.99999823281032 18" width="17.99999823281032" height="18"><g transform="translate(0, 0)"><g transform="translate(-2.9468990518632356e-7, -0.000009999999998733244) rotate(0)"><path d="M17.99574,2.42636c0,0 0,11.42067 0,13.49716c0,2.07649 -1.95517,2.07649 -1.95517,2.07649c0,0 -11.48897,-0.01537 -13.77659,-0.01537c-2.28762,0 -2.26397,-2.26833 -2.26397,-2.26833c0,0 0.09502,-11.0256 0.06678,-13.28994c-0.02824,-2.26433 1.95501,-2.42636 1.95501,-2.42636c0,0 11.59436,0 13.88272,0c2.28836,0 2.09122,2.42636 2.09122,2.42636zM2.19675,8.6l5,5l9,-9l-1.6,-1.6l-7.44531,7.54118l-3.41176,-3.41176z" style="stroke: rgb(102, 102, 102); stroke-width: 0; stroke-linecap: butt; stroke-linejoin: miter; fill: rgb(35, 31, 32);"/></g><defs><path id="path-159957945741616479" d="M17.99574,2.42636c0,0 0,11.42067 0,13.49716c0,2.07649 -1.95517,2.07649 -1.95517,2.07649c0,0 -11.48897,-0.01537 -13.77659,-0.01537c-2.28762,0 -2.26397,-2.26833 -2.26397,-2.26833c0,0 0.09502,-11.0256 0.06678,-13.28994c-0.02824,-2.26433 1.95501,-2.42636 1.95501,-2.42636c0,0 11.59436,0 13.88272,0c2.28836,0 2.09122,2.42636 2.09122,2.42636zM2.19675,8.6l5,5l9,-9l-1.6,-1.6l-7.44531,7.54118l-3.41176,-3.41176z"/></defs></g></svg>