<?xml version="1.0" standalone="no"?>
<svg version="1.2" xmlns="http://www.w3.org/2000/svg" xmlns:xlink="http://www.w3.org/1999/xlink" overflow="visible" preserveAspectRatio="none" viewBox="0 0 18.999999999999982 19.00000000000001" width="18.999999999999982" height="19.00000000000001"><g transform="translate(0, 0)"><g transform="translate(2.1559813362501037e-15, 8.06681652899821e-15) rotate(0)"><path d="M8.87064,15.67485c-0.29687,0.30874 -0.78373,0.32062 -1.09247,0.02375c-0.01187,-0.01187 -0.01187,-0.01187 -0.02375,-0.02375l-1.25872,-1.27059c-0.30874,-0.29687 -0.32062,-0.78373 -0.02375,-1.09247c0.01187,-0.01187 0.01187,-0.01187 0.02375,-0.02375l3.79991,-3.79991l-3.79991,-3.78803c-0.30874,-0.29687 -0.32062,-0.78373 -0.02375,-1.09247c0.01187,-0.01187 0.01187,-0.01187 0.02375,-0.02375l1.25872,-1.25872c0.29687,-0.30874 0.78373,-0.32062 1.09247,-0.02375c0.01187,0.01187 0.01187,0.01187 0.02375,0.02375l5.61674,5.61674c0.30874,0.29687 0.32062,0.78373 0.02375,1.09247c-0.01187,0.01187 -0.01187,0.01187 -0.02375,0.02375l-5.61674,5.61674zM17.7173,4.75011c-0.83123,-1.43684 -2.03058,-2.63619 -3.46742,-3.46742c-1.43684,-0.8431 -3.07555,-1.29434 -4.74988,-1.28247c-1.67433,-0.01187 -3.31304,0.43936 -4.74988,1.28247c-1.43684,0.83123 -2.63619,2.03058 -3.46742,3.46742c-0.8431,1.43684 -1.29434,3.07555 -1.28247,4.74988c-0.01187,1.67433 0.42749,3.31304 1.27059,4.74988c0.83123,1.43684 2.03058,2.63619 3.47929,3.46742c1.43684,0.8431 3.07555,1.29434 4.74988,1.28247c1.67433,0.01187 3.31304,-0.42749 4.74988,-1.27059c1.43684,-0.83123 2.63619,-2.03058 3.46742,-3.47929c0.8431,-1.43684 1.29434,-3.07555 1.28247,-4.74988c0.01187,-1.67433 -0.43936,-3.31304 -1.28247,-4.74988z" style="stroke-width: 0; stroke-linecap: butt; stroke-linejoin: miter; fill: rgb(255, 255, 255);"/></g><defs><path id="path-159957945298813813" d="M8.87064,15.67485c-0.29687,0.30874 -0.78373,0.32062 -1.09247,0.02375c-0.01187,-0.01187 -0.01187,-0.01187 -0.02375,-0.02375l-1.25872,-1.27059c-0.30874,-0.29687 -0.32062,-0.78373 -0.02375,-1.09247c0.01187,-0.01187 0.01187,-0.01187 0.02375,-0.02375l3.79991,-3.79991l-3.79991,-3.78803c-0.30874,-0.29687 -0.32062,-0.78373 -0.02375,-1.09247c0.01187,-0.01187 0.01187,-0.01187 0.02375,-0.02375l1.25872,-1.25872c0.29687,-0.30874 0.78373,-0.32062 1.09247,-0.02375c0.01187,0.01187 0.01187,0.01187 0.02375,0.02375l5.61674,5.61674c0.30874,0.29687 0.32062,0.78373 0.02375,1.09247c-0.01187,0.01187 -0.01187,0.01187 -0.02375,0.02375l-5.61674,5.61674zM17.7173,4.75011c-0.83123,-1.43684 -2.03058,-2.63619 -3.46742,-3.46742c-1.43684,-0.8431 -3.07555,-1.29434 -4.74988,-1.28247c-1.67433,-0.01187 -3.31304,0.43936 -4.74988,1.28247c-1.43684,0.83123 -2.63619,2.03058 -3.46742,3.46742c-0.8431,1.43684 -1.29434,3.07555 -1.28247,4.74988c-0.01187,1.67433 0.42749,3.31304 1.27059,4.74988c0.83123,1.43684 2.03058,2.63619 3.47929,3.46742c1.43684,0.8431 3.07555,1.29434 4.74988,1.28247c1.67433,0.01187 3.31304,-0.42749 4.74988,-1.27059c1.43684,-0.83123 2.63619,-2.03058 3.46742,-3.47929c0.8431,-1.43684 1.29434,-3.07555 1.28247,-4.74988c0.01187,-1.67433 -0.43936,-3.31304 -1.28247,-4.74988z"/></defs></g></svg>