<?xml version="1.0" standalone="no"?>
<svg version="1.2" xmlns="http://www.w3.org/2000/svg" xmlns:xlink="http://www.w3.org/1999/xlink" overflow="visible" preserveAspectRatio="none" viewBox="0 0 26 26" height="24" width="24"><g transform="translate(1, 1)"><desc>Created with Sketch.</desc><defs><path id="path-1_1594893725305" d="M19.35,10.04 C18.67,6.59 15.64,4 12,4 C9.11,4 6.6,5.64 5.35,8.04 C2.34,8.36 0,10.91 0,14 C0,17.31 2.69,20 6,20 L19,20 C21.76,20 24,17.76 24,15 C24,12.36 21.95,10.22 19.35,10.04 Z M19,18 L6,18 C3.79,18 2,16.21 2,14 C2,11.95 3.53,10.24 5.56,10.03 L6.63,9.92 L7.13,8.97 C8.08,7.14 9.94,6 12,6 C14.62,6 16.88,7.86 17.39,10.43 L17.69,11.93 L19.22,12.04 C20.78,12.14 22,13.45 22,15 C22,16.65 20.65,18 19,18 Z M8,13 L10.55,13 L10.55,16 L13.45,16 L13.45,13 L16,13 L12,9 L8,13 Z" vector-effect="non-scaling-stroke" style=""/></defs><g fill-rule="evenodd" fill="none" stroke-width="1" stroke="none" id="icon/file/cloud_upload_24px_1594893725305"><mask fill="white" id="mask-2_1594893725305" vector-effect="non-scaling-stroke" style=""><use xmlns:xlink="http://www.w3.org/1999/xlink" xlink:href="#path-1_1594893725305" vector-effect="non-scaling-stroke" style=""/></mask><g fill-rule="nonzero"/><g fill="#000000" mask="url(#mask-2_1594893725305)" id="✱-/-Color-/-Icons-/-Black-/-Inactive_1594893725305"><rect height="24" width="24" y="0" x="0" id="Rectangle_1594893725305" vector-effect="non-scaling-stroke" style="fill: rgb(2, 164, 170);"/></g></g></g></svg>