<?xml version="1.0" standalone="no"?>
<svg version="1.2" xmlns="http://www.w3.org/2000/svg" xmlns:xlink="http://www.w3.org/1999/xlink" overflow="visible" preserveAspectRatio="none" viewBox="0 0 19.99999761581421 20.01395225524901" width="19.99999761581421" height="20.01395225524901"><g transform="translate(0, 0)"><g transform="translate(0, -1.1617632853996862e-15) rotate(0)"><path d="M12.35,12.35073c-1.3,1.3 -3.4,1.3 -4.7,0.0125l-0.0125,-0.0125c-1.3,-1.3 -1.3,-3.4 -0.0125,-4.7l0.0125,-0.0125c1.3,-1.3 3.4,-1.3 4.7,-0.0125l0.0125,0.0125c1.1875,1.2625 1.075,3.3375 0,4.7125zM19.9875,8.60073c0,-0.1125 -0.0375,-0.2125 -0.1,-0.3c-0.0625,-0.0875 -0.1625,-0.15 -0.275,-0.1625l-2.3875,-0.3625c-0.1375,-0.4375 -0.325,-0.85 -0.5375,-1.25c0.1625,-0.2125 0.3875,-0.525 0.7,-0.9125c0.3125,-0.3875 0.525,-0.675 0.6625,-0.8625c0.0625,-0.0875 0.1,-0.1875 0.1,-0.3c0.0125,-0.1 -0.025,-0.2 -0.0875,-0.2875c-0.65,-0.8 -1.375,-1.5375 -2.15,-2.2125c-0.0875,-0.075 -0.2,-0.125 -0.325,-0.125c-0.1125,-0.0125 -0.225,0.0375 -0.3125,0.1125l-1.825,1.3375c-0.375,-0.1875 -0.775,-0.35 -1.175,-0.4875l-0.3625,-2.3875c-0.0125,-0.1125 -0.0625,-0.2125 -0.15,-0.275c-0.0875,-0.0875 -0.2,-0.125 -0.3125,-0.125h-2.9c-0.225,-0.0125 -0.425,0.1375 -0.4625,0.3625c-0.175,0.8 -0.3,1.6125 -0.375,2.425c-0.4125,0.1375 -0.8125,0.3 -1.1875,0.5l-1.8,-1.4c-0.1,-0.075 -0.2125,-0.125 -0.3375,-0.125c-0.4875,0.2 -0.925,0.5125 -1.25,0.925c-0.45,0.4375 -0.8625,0.9 -1.25,1.4c-0.0625,0.075 -0.1,0.1875 -0.1125,0.3c0,0.1125 0.05,0.225 0.125,0.3125c0.575,0.7 1.0375,1.3 1.3875,1.8c-0.2125,0.4 -0.3875,0.8125 -0.5125,1.25l-2.425,0.3625c-0.1,0.025 -0.2,0.0875 -0.25,0.175c-0.0625,0.075 -0.1,0.1875 -0.1,0.3v2.8875c0,0.1125 0.0375,0.2125 0.1,0.3c0.0625,0.0875 0.1625,0.15 0.275,0.1625l2.3875,0.35c0.1375,0.4375 0.3125,0.85 0.5375,1.25c-0.1625,0.2125 -0.3875,0.5125 -0.7,0.9125c-0.3125,0.3875 -0.525,0.675 -0.6625,0.8625c-0.0625,0.0875 -0.1,0.1875 -0.1,0.3c0,0.1125 0.025,0.2125 0.0875,0.3c0.65,0.7875 1.375,1.525 2.15,2.1875c0.0875,0.0875 0.2,0.1375 0.325,0.1375c0.125,0 0.2375,-0.0375 0.325,-0.1125l1.8375,-1.3875c0.375,0.1875 0.775,0.35 1.175,0.4875l0.3625,2.4c0.0125,0.1125 0.0625,0.2125 0.15,0.275c0.0875,0.075 0.2125,0.1125 0.325,0.1125h2.8875c0.225,0.0125 0.425,-0.1375 0.4625,-0.3625c0.175,-0.8 0.3,-1.6125 0.375,-2.425c0.4125,-0.1375 0.8125,-0.3 1.1875,-0.5l1.8,1.4c0.1,0.075 0.2125,0.1125 0.3375,0.1125c0.4875,-0.2 0.925,-0.5125 1.25,-0.925c0.45,-0.4375 0.8625,-0.9 1.25,-1.4c0.075,-0.0875 0.1125,-0.1875 0.1125,-0.3c0,-0.125 -0.05,-0.2375 -0.125,-0.325c-0.625,-0.7625 -1.0875,-1.3625 -1.3875,-1.8c0.2,-0.3875 0.375,-0.775 0.5125,-1.1875l2.4125,-0.3625c0.1125,-0.025 0.2,-0.0875 0.2625,-0.175c0.0625,-0.0875 0.0875,-0.1875 0.0875,-0.2875v-2.8875v0z" style="stroke-width: 0; stroke-linecap: butt; stroke-linejoin: miter; fill: rgb(255, 150, 30);"/></g><defs><path id="path-159957943955460" d="M12.35,12.35073c-1.3,1.3 -3.4,1.3 -4.7,0.0125l-0.0125,-0.0125c-1.3,-1.3 -1.3,-3.4 -0.0125,-4.7l0.0125,-0.0125c1.3,-1.3 3.4,-1.3 4.7,-0.0125l0.0125,0.0125c1.1875,1.2625 1.075,3.3375 0,4.7125zM19.9875,8.60073c0,-0.1125 -0.0375,-0.2125 -0.1,-0.3c-0.0625,-0.0875 -0.1625,-0.15 -0.275,-0.1625l-2.3875,-0.3625c-0.1375,-0.4375 -0.325,-0.85 -0.5375,-1.25c0.1625,-0.2125 0.3875,-0.525 0.7,-0.9125c0.3125,-0.3875 0.525,-0.675 0.6625,-0.8625c0.0625,-0.0875 0.1,-0.1875 0.1,-0.3c0.0125,-0.1 -0.025,-0.2 -0.0875,-0.2875c-0.65,-0.8 -1.375,-1.5375 -2.15,-2.2125c-0.0875,-0.075 -0.2,-0.125 -0.325,-0.125c-0.1125,-0.0125 -0.225,0.0375 -0.3125,0.1125l-1.825,1.3375c-0.375,-0.1875 -0.775,-0.35 -1.175,-0.4875l-0.3625,-2.3875c-0.0125,-0.1125 -0.0625,-0.2125 -0.15,-0.275c-0.0875,-0.0875 -0.2,-0.125 -0.3125,-0.125h-2.9c-0.225,-0.0125 -0.425,0.1375 -0.4625,0.3625c-0.175,0.8 -0.3,1.6125 -0.375,2.425c-0.4125,0.1375 -0.8125,0.3 -1.1875,0.5l-1.8,-1.4c-0.1,-0.075 -0.2125,-0.125 -0.3375,-0.125c-0.4875,0.2 -0.925,0.5125 -1.25,0.925c-0.45,0.4375 -0.8625,0.9 -1.25,1.4c-0.0625,0.075 -0.1,0.1875 -0.1125,0.3c0,0.1125 0.05,0.225 0.125,0.3125c0.575,0.7 1.0375,1.3 1.3875,1.8c-0.2125,0.4 -0.3875,0.8125 -0.5125,1.25l-2.425,0.3625c-0.1,0.025 -0.2,0.0875 -0.25,0.175c-0.0625,0.075 -0.1,0.1875 -0.1,0.3v2.8875c0,0.1125 0.0375,0.2125 0.1,0.3c0.0625,0.0875 0.1625,0.15 0.275,0.1625l2.3875,0.35c0.1375,0.4375 0.3125,0.85 0.5375,1.25c-0.1625,0.2125 -0.3875,0.5125 -0.7,0.9125c-0.3125,0.3875 -0.525,0.675 -0.6625,0.8625c-0.0625,0.0875 -0.1,0.1875 -0.1,0.3c0,0.1125 0.025,0.2125 0.0875,0.3c0.65,0.7875 1.375,1.525 2.15,2.1875c0.0875,0.0875 0.2,0.1375 0.325,0.1375c0.125,0 0.2375,-0.0375 0.325,-0.1125l1.8375,-1.3875c0.375,0.1875 0.775,0.35 1.175,0.4875l0.3625,2.4c0.0125,0.1125 0.0625,0.2125 0.15,0.275c0.0875,0.075 0.2125,0.1125 0.325,0.1125h2.8875c0.225,0.0125 0.425,-0.1375 0.4625,-0.3625c0.175,-0.8 0.3,-1.6125 0.375,-2.425c0.4125,-0.1375 0.8125,-0.3 1.1875,-0.5l1.8,1.4c0.1,0.075 0.2125,0.1125 0.3375,0.1125c0.4875,-0.2 0.925,-0.5125 1.25,-0.925c0.45,-0.4375 0.8625,-0.9 1.25,-1.4c0.075,-0.0875 0.1125,-0.1875 0.1125,-0.3c0,-0.125 -0.05,-0.2375 -0.125,-0.325c-0.625,-0.7625 -1.0875,-1.3625 -1.3875,-1.8c0.2,-0.3875 0.375,-0.775 0.5125,-1.1875l2.4125,-0.3625c0.1125,-0.025 0.2,-0.0875 0.2625,-0.175c0.0625,-0.0875 0.0875,-0.1875 0.0875,-0.2875v-2.8875v0z"/></defs></g></svg>