<svg version="1.2" xmlns="http://www.w3.org/2000/svg" xmlns:xlink="http://www.w3.org/1999/xlink" overflow="visible" preserveAspectRatio="none" viewBox="0 0 22.727272727272748 19.090909090909093" width="22.727272727272748" height="19.090909090909093"><g transform="translate(0, 0)"><defs><path id="path-159964001477421565" d="M11.363636363636372 22.459893048128347 C11.363636363636372 22.459893048128347 11.363636363636372 15.721925133689842 11.363636363636372 15.721925133689842 C11.363636363636372 15.721925133689842 15.909090909090924 15.721925133689842 15.909090909090924 15.721925133689842 C15.909090909090924 15.721925133689842 15.909090909090924 22.459893048128347 15.909090909090924 22.459893048128347 C15.909090909090924 22.459893048128347 21.590909090909108 22.459893048128347 21.590909090909108 22.459893048128347 C21.590909090909108 22.459893048128347 21.590909090909108 13.475935828877008 21.590909090909108 13.475935828877008 C21.590909090909108 13.475935828877008 25.00000000000003 13.475935828877008 25.00000000000003 13.475935828877008 C25.00000000000003 13.475935828877008 13.636363636363647 3.368983957219252 13.636363636363647 3.368983957219252 C13.636363636363647 3.368983957219252 2.2727272727272747 13.475935828877008 2.2727272727272747 13.475935828877008 C2.2727272727272747 13.475935828877008 5.681818181818186 13.475935828877008 5.681818181818186 13.475935828877008 C5.681818181818186 13.475935828877008 5.681818181818186 22.459893048128347 5.681818181818186 22.459893048128347 C5.681818181818186 22.459893048128347 11.363636363636372 22.459893048128347 11.363636363636372 22.459893048128347 Z" vector-effect="non-scaling-stroke"/></defs><g transform="translate(-2.2727272727272747, -3.368983957219252)"><path d="M11.363636363636372 22.459893048128347 C11.363636363636372 22.459893048128347 11.363636363636372 15.721925133689842 11.363636363636372 15.721925133689842 C11.363636363636372 15.721925133689842 15.909090909090924 15.721925133689842 15.909090909090924 15.721925133689842 C15.909090909090924 15.721925133689842 15.909090909090924 22.459893048128347 15.909090909090924 22.459893048128347 C15.909090909090924 22.459893048128347 21.590909090909108 22.459893048128347 21.590909090909108 22.459893048128347 C21.590909090909108 22.459893048128347 21.590909090909108 13.475935828877008 21.590909090909108 13.475935828877008 C21.590909090909108 13.475935828877008 25.00000000000003 13.475935828877008 25.00000000000003 13.475935828877008 C25.00000000000003 13.475935828877008 13.636363636363647 3.368983957219252 13.636363636363647 3.368983957219252 C13.636363636363647 3.368983957219252 2.2727272727272747 13.475935828877008 2.2727272727272747 13.475935828877008 C2.2727272727272747 13.475935828877008 5.681818181818186 13.475935828877008 5.681818181818186 13.475935828877008 C5.681818181818186 13.475935828877008 5.681818181818186 22.459893048128347 5.681818181818186 22.459893048128347 C5.681818181818186 22.459893048128347 11.363636363636372 22.459893048128347 11.363636363636372 22.459893048128347 Z" style="stroke-width: 0; stroke-linecap: butt; stroke-linejoin: miter; fill: rgb(35, 31, 32);" vector-effect="non-scaling-stroke"/></g></g></svg>