<?xml version="1.0" standalone="no"?>
<svg version="1.2" xmlns="http://www.w3.org/2000/svg" xmlns:xlink="http://www.w3.org/1999/xlink" overflow="visible" preserveAspectRatio="none" viewBox="0 0 1202 1202" height="50" width="50" id="Layer_1_1595585828343"><g transform="translate(1, 1)"><defs><style>.cls-1_1595585828343{fill:#fff;}.cls-2_1595585828343,.cls-5_1595585828343{fill:#063;}.cls-3_1595585828343{fill:#5db130;}.cls-4_1595585828343{opacity:0.25;}.cls-5_1595585828343{opacity:0.5;}</style></defs><rect rx="104.01" height="1113.02" width="880.4" y="22.88" x="155.47" class="cls-1_1595585828343" vector-effect="non-scaling-stroke"/><path d="M931.85,45.76A81.23,81.23,0,0,1,1013,126.89v905A81.23,81.23,0,0,1,931.85,1113H259.48a81.22,81.22,0,0,1-81.13-81.13v-905a81.22,81.22,0,0,1,81.13-81.13H931.85m0-45.76H259.48A126.89,126.89,0,0,0,132.59,126.89v905a126.89,126.89,0,0,0,126.89,126.89H931.85a126.9,126.9,0,0,0,126.9-126.89v-905A126.9,126.9,0,0,0,931.85,0Z" class="cls-2_1595585828343" vector-effect="non-scaling-stroke"/><path d="M905.12,197.22H468.52a22.88,22.88,0,0,1,0-45.76h436.6a22.88,22.88,0,0,1,0,45.76Z" class="cls-2_1595585828343" vector-effect="non-scaling-stroke"/><path d="M905.12,310.91H468.52a22.88,22.88,0,1,1,0-45.76h436.6a22.88,22.88,0,0,1,0,45.76Z" class="cls-2_1595585828343" vector-effect="non-scaling-stroke"/><path d="M905.12,424.59H652.19a22.88,22.88,0,0,1,0-45.76H905.12a22.88,22.88,0,0,1,0,45.76Z" class="cls-2_1595585828343" vector-effect="non-scaling-stroke"/><rect transform="translate(-394.03 858.47) rotate(-45)" rx="111.19" height="664.87" width="254.41" y="572.43" x="712.05" class="cls-3_1595585828343" vector-effect="non-scaling-stroke"/><path d="M984.37,1200a149.63,149.63,0,0,1-106.13-43.89L588,865.87c-58.52-58.52-58.52-153.73,0-212.25s153.73-58.52,212.25,0L1090.5,943.86c58.52,58.52,58.52,153.73,0,212.25A149.62,149.62,0,0,1,984.37,1200ZM694.13,655.47a104.28,104.28,0,0,0-73.77,178L910.6,1123.75a104.32,104.32,0,1,0,147.54-147.53L767.9,686A104,104,0,0,0,694.13,655.47Z" class="cls-2_1595585828343" vector-effect="non-scaling-stroke"/><circle r="289.8" cy="532.79" cx="467.17" class="cls-1_1595585828343" vector-effect="non-scaling-stroke"/><g class="cls-4_1595585828343"><path d="M188.18,279.46c137.31-155,374.27-169.34,529.27-32s169.34,374.27,32,529.27C701.8,566.43,390.83,355.86,188.18,279.46Z" class="cls-3_1595585828343" vector-effect="non-scaling-stroke"/></g><path d="M720.63,786.24a358.43,358.43,0,1,1,105-253.45A356.1,356.1,0,0,1,720.63,786.24ZM310.79,376.4c-86.23,86.23-86.23,226.54,0,312.77s226.54,86.23,312.77,0A221.16,221.16,0,1,0,310.79,376.4Z" class="cls-3_1595585828343" vector-effect="non-scaling-stroke"/><path d="M736.81,263.15A381.14,381.14,0,1,0,631.69,877c-4.15-4.57,8.57-23.56,4.31-27.82-6.78-6.78-16.62-16.56-28.62-11.35A335.07,335.07,0,1,1,772.21,673c-4.26,11.46.15,17.7,11.34,28.65,4.45,4.36,23.09-8.64,27.83-4.33a382,382,0,0,0-74.57-434.16Z" class="cls-2_1595585828343" vector-effect="non-scaling-stroke"/><path d="M1126.28,1032.46S787.67,640.18,779,658.28c-14.2,29.62-39.55,75.29-74.44,110.18-56.2,56.2-142.09,89.34-142.09,89.34s90.49,13.94,167.93-63.5c12.52-12.52,17.91-19.82,26.59-32.13,9.54-13.55,19.11-6.33,25.09-.35,236.57,236.57,301.36,292.47,283.74,369.59Z" class="cls-5_1595585828343" vector-effect="non-scaling-stroke"/><path d="M414.72,660.78,312.28,558.34A22.88,22.88,0,1,1,344.64,526l70.08,70.08L589.19,421.6A22.88,22.88,0,1,1,621.55,454Z" class="cls-2_1595585828343" vector-effect="non-scaling-stroke"/></g></svg>