<?xml version="1.0" standalone="no"?>
<svg version="1.2" xmlns="http://www.w3.org/2000/svg" xmlns:xlink="http://www.w3.org/1999/xlink" overflow="visible" preserveAspectRatio="none" viewBox="0 0 1202 1202" height="50" width="50" id="Layer_1_1594825744535"><g transform="translate(1, 1)"><defs><style>.cls-1_1594825744535{fill:#07a4a9;}.cls-2_1594825744535{fill:#216083;}.cls-3_1594825744535{fill:#014250;}</style></defs><path d="M927.7,163.17h-182a145.61,145.61,0,0,0-291.21,0h-182A109.22,109.22,0,0,0,163.28,272.39v800.82A109.22,109.22,0,0,0,272.5,1182.43h655a109.22,109.22,0,0,0,109.22-109.22V272.39A109.22,109.22,0,0,0,927.7,163.17ZM600,108.6h0a54.61,54.61,0,1,1-54.57,54.69A54.61,54.61,0,0,1,600,108.6ZM381.72,322.43a13.64,13.64,0,0,1,13.64-13.63H804.77a13.63,13.63,0,0,1,13.63,13.63v45.51h.08a13.63,13.63,0,0,1-13.63,13.63H395.36a13.64,13.64,0,0,1-13.64-13.63Zm192.67,238A198.62,198.62,0,0,0,476.84,601l-35.51-35.75a249,249,0,0,1,133.06-55.31Zm51.3,143.1,73.8,55.59-73.8,55.26-76.28,57.14V646.42ZM405.82,600.74l35.76,35.51a198.65,198.65,0,0,0-40.53,97.55H350.52A249.09,249.09,0,0,1,405.82,600.74Zm-55.3,183.1h50.53a196.79,196.79,0,0,0,40.53,97.34l-35.76,35.76A249,249,0,0,1,350.52,783.84Zm223.87,223.91a249.75,249.75,0,0,1-133.06-55.31l35.51-35.75a198.62,198.62,0,0,0,97.55,40.53Zm51.22,0V957.22c109.56-14,187-114.16,173-223.72a200,200,0,0,0-173-173V509.93a250.33,250.33,0,0,1,0,497.86Z" class="cls-1_1594825744535" vector-effect="non-scaling-stroke"/><path d="M1036.72,228.44s3.38,787.18,3.38,828.71c0,63.8-39.56,125.28-133.34,125.28S453.1,1188,453.1,1188,953,1116.8,953,723.1c0-204.54-8-558.83-8-558.83Z" class="cls-2_1594825744535" vector-effect="non-scaling-stroke"/><path d="M927.5,1202.43h-655a129.36,129.36,0,0,1-129.22-129.22V272.39A129.37,129.37,0,0,1,272.5,143.17H435.7c9.9-81.92,79.85-145.6,164.4-145.6s154.5,63.68,164.41,145.6H927.74c71.12.14,129,58.1,129,129.22v800.82A129.36,129.36,0,0,1,927.5,1202.43ZM272.5,183.17a89.33,89.33,0,0,0-89.22,89.22v800.82a89.32,89.32,0,0,0,89.22,89.22h655a89.32,89.32,0,0,0,89.22-89.22V272.39a89.36,89.36,0,0,0-89.06-89.22H725.71v-20a125.61,125.61,0,0,0-251.21,0v20Zm509.83,218.4H418.11a56.39,56.39,0,0,1-56.39-56.39h0a56.39,56.39,0,0,1,56.39-56.38H782a56.39,56.39,0,0,1,56.39,56.38v2.76h.08C838.48,385.73,800.87,401.57,782.33,401.57ZM425.72,368.91H774.41a24,24,0,0,0,24-24h0a24,24,0,0,0-24-24H425.72a24,24,0,0,0-24,24h0A24,24,0,0,0,425.72,368.91ZM600.08,237.82A74.61,74.61,0,0,1,600,88.6h.13a74.61,74.61,0,0,1,.09,149.22ZM600,108.6l0,20a34.61,34.61,0,0,0,.05,69.22h0a34.61,34.61,0,0,0,0-69.22h0Z" class="cls-3_1594825744535" vector-effect="non-scaling-stroke"/><path d="M759.18,183.17c-5.94,41.72-35.16,80.92-81,105.63H628.7c46-6.12,90-52.59,97.06-105.56C734.38,183.24,750.31,183.17,759.18,183.17Z" class="cls-2_1594825744535" vector-effect="non-scaling-stroke"/></g></svg>