<?xml version="1.0" standalone="no"?>
<svg version="1.2" xmlns="http://www.w3.org/2000/svg" xmlns:xlink="http://www.w3.org/1999/xlink" overflow="visible" preserveAspectRatio="none" viewBox="0 0 1202 1202" height="50" width="50" id="Layer_1_1594825705274"><g transform="translate(1, 1)"><defs><style>.cls-1_1594825705274{fill:#84171d;}.cls-2_1594825705274{fill:#e73635;}.cls-3_1594825705274{fill:#be1622;}</style></defs><path d="M605.35,67.23A76.84,76.84,0,0,1,657,87.12l195.7,172.76V160a30.91,30.91,0,0,1,30.92-30.91h123.7A30.91,30.91,0,0,1,1038.24,160V423.71L1151.7,523.92h0a30.92,30.92,0,0,1,2.53,43.65l-41.5,46.06A31,31,0,0,1,1069,616l-30.91-27.27V1113a30.91,30.91,0,0,1-30.92,30.91H666.93l-77.06-106.77,201.22-123.7L519.51,641.88,621,879.51,419.73,1003.22l72,140.59H203.24a30.91,30.91,0,0,1-30.91-30.92V589l-30.59,27,0,0a30.9,30.9,0,0,1-43.65-2.36l-41.5-46.06,0,0a30.93,30.93,0,0,1,2.36-43.66L553.68,87.12a76.87,76.87,0,0,1,51.67-19.89m0-37.94a114.73,114.73,0,0,0-76.92,29.52L33.76,495.48l-.11.1-.12.11a68.93,68.93,0,0,0-5.26,97.22l0,0,0,0,.14.16,0,0,41.37,45.92a68.89,68.89,0,0,0,64.53,21.51v452.3a68.93,68.93,0,0,0,68.85,68.86H553.72l-28.26-55.23-56-109.36L640.82,911.83l27.87-17.13-12.85-30.08-24.39-57.14,98.83,98.82L570,1004.84l-34.81,21.4,23.91,33.12,77.06,106.78,11.36,15.73H1007.2a68.94,68.94,0,0,0,68.86-68.85V660.47A69,69,0,0,0,1140.93,639l41.49-46,.07-.08.07-.08a68.86,68.86,0,0,0-5.47-97.08l-.07-.06-.16-.14-.39-.35,0,0L1076.18,406.6V160a68.93,68.93,0,0,0-68.85-68.85H883.63A68.94,68.94,0,0,0,814.77,160v15.79l-132.5-117a114.77,114.77,0,0,0-76.92-29.52Z" class="cls-1_1594825705274" vector-effect="non-scaling-stroke"/><path d="M605.41,183.31S176.11,549.12,172.43,551v561.86a30.92,30.92,0,0,0,30.92,30.92H491.8l-72-140.6,201.22-123.7L519.62,641.88,791.2,913.46,590,1037.16,667,1143.93h340.27a30.91,30.91,0,0,0,30.92-30.91h0V567.5C1034.71,565.66,605.41,183.31,605.41,183.31Zm546.4,340.61L1038.35,423.71V160a30.91,30.91,0,0,0-30.91-30.91H883.74A30.91,30.91,0,0,0,852.82,160h0v99.89L657.12,87.12a77,77,0,0,0-103.33,0L59,523.92a30.93,30.93,0,0,0-2.36,43.66l0,0,41.5,46.06A30.91,30.91,0,0,0,141.81,616l0,0L585,224.89a31,31,0,0,1,40.91,0L1069.14,616a31,31,0,0,0,43.7-2.32l41.5-46.06a30.92,30.92,0,0,0-2.53-43.65Z" class="cls-2_1594825705274" id="Icon_awesome-house-damage_1594825705274" vector-effect="non-scaling-stroke"/><path d="M791.2,913.46l228.16,228.16a34.23,34.23,0,0,1-12.05,2.31H667L590,1037.16Z" class="cls-3_1594825705274" vector-effect="non-scaling-stroke"/><path d="M852.82,259.88l185.53,163.83-.12-45.41C886.61,252.17,852.82,160,852.82,160Z" class="cls-3_1594825705274" vector-effect="non-scaling-stroke"/><path d="M605.41,209.49l-22.92,20.13s-33.32,24.85-83.37,74.91c99.09-44.5,156.08,12.13,186.07,41.06,86.26,83.2,69.35,64.83,353,323.64V588.6Z" class="cls-3_1594825705274" vector-effect="non-scaling-stroke"/></g></svg>