<?xml version="1.0" standalone="no"?>
<svg version="1.2" xmlns="http://www.w3.org/2000/svg" xmlns:xlink="http://www.w3.org/1999/xlink" overflow="visible" preserveAspectRatio="none" viewBox="0 0 32 32" width="32" height="32"><g transform="translate(0, 0)"><defs><path id="path-159957947893121359" d="M38.83897309347357 32.11797825061804 C38.76263000841461 31.646065248145863 38.46685769683884 31.24274425184698 38.02388494580804 31.003129510281646 C38.02388494580804 31.003129510281646 31.470722524728195 27.1409422826848 31.470722524728195 27.1409422826848 C31.470722524728195 27.1409422826848 31.416779506542824 27.110761799968554 31.416779506542824 27.110761799968554 C31.152093002056933 26.97494962774546 30.84580637337724 26.904985781448712 30.531291148703158 26.904985781448712 C29.982260938189242 26.904985781448712 29.45791651565847 27.113048200174326 29.09402971501811 27.477957673016185 C29.09402971501811 27.477957673016185 27.159852512116903 29.413624087226165 27.159852512116903 29.413624087226165 C27.07710940795119 29.49227625430485 26.80739431702429 29.60613898455251 26.7255655013024 29.610254504922903 C26.70316543442881 29.608425384758277 24.47504449683947 29.447920090312802 20.37308939364104 25.344289000986006 C16.27844859799318 21.24934623244115 16.104733793667375 19.013704111233373 16.10336236100164 19.013704111233373 C16.105648082111195 18.899384100944573 16.21810556070106 18.630503436745304 16.29810579953531 18.54727846925506 C16.29810579953531 18.54727846925506 17.947482152186584 16.89786936080824 17.947482152186584 16.89786936080824 C18.52851245823419 16.315294588376506 18.702684406781902 15.349519141456714 18.357997663461763 14.601408994126807 C18.357997663461763 14.601408994126807 14.715472503282893 7.745409337086837 14.715472503282893 7.745409337086837 C14.450785998797 7.200331528029837 13.936498749148251 6.863773417739607 13.365982760204572 6.863773417739607 C12.962324412258043 6.863773417739607 12.572837535190722 7.03113791280241 12.268379483398661 7.335229140170622 C12.268379483398661 7.335229140170622 7.772366060913812 11.822518184026634 7.772366060913812 11.822518184026634 C7.341279059652686 12.251446862630214 6.970077951461765 13.001386130124754 6.889163424183695 13.60499578444962 C6.849849021099435 13.893539490418553 6.052132353866485 20.781091470298232 15.49216053630798 30.225296160276653 C23.506355890612188 38.2409580016862 29.755517404121886 38.86377341773961 31.481236841832118 38.86377341773961 C31.481236841832118 38.86377341773961 31.481236841832118 38.86377341773961 31.481236841832118 38.86377341773961 C31.852437950023035 38.86377341773961 32.06866716698649 38.83725117535261 32.1102672911803 38.83130653481759 C32.71186908721384 38.75082524757428 33.46067132270243 38.380428414238544 33.88901545863211 37.95104245559382 C33.88901545863211 37.95104245559382 38.38137172734167 33.4578087712028 38.38137172734167 33.4578087712028 C38.748001393313494 33.08924105803168 38.91531617853254 32.602237814201416 38.83897309347357 32.11797825061804 Z"/></defs><g transform="translate(-6.857087246929276, -6.863773417739607)"><path d="M38.83897309347357 32.11797825061804 C38.76263000841461 31.646065248145863 38.46685769683884 31.24274425184698 38.02388494580804 31.003129510281646 C38.02388494580804 31.003129510281646 31.470722524728195 27.1409422826848 31.470722524728195 27.1409422826848 C31.470722524728195 27.1409422826848 31.416779506542824 27.110761799968554 31.416779506542824 27.110761799968554 C31.152093002056933 26.97494962774546 30.84580637337724 26.904985781448712 30.531291148703158 26.904985781448712 C29.982260938189242 26.904985781448712 29.45791651565847 27.113048200174326 29.09402971501811 27.477957673016185 C29.09402971501811 27.477957673016185 27.159852512116903 29.413624087226165 27.159852512116903 29.413624087226165 C27.07710940795119 29.49227625430485 26.80739431702429 29.60613898455251 26.7255655013024 29.610254504922903 C26.70316543442881 29.608425384758277 24.47504449683947 29.447920090312802 20.37308939364104 25.344289000986006 C16.27844859799318 21.24934623244115 16.104733793667375 19.013704111233373 16.10336236100164 19.013704111233373 C16.105648082111195 18.899384100944573 16.21810556070106 18.630503436745304 16.29810579953531 18.54727846925506 C16.29810579953531 18.54727846925506 17.947482152186584 16.89786936080824 17.947482152186584 16.89786936080824 C18.52851245823419 16.315294588376506 18.702684406781902 15.349519141456714 18.357997663461763 14.601408994126807 C18.357997663461763 14.601408994126807 14.715472503282893 7.745409337086837 14.715472503282893 7.745409337086837 C14.450785998797 7.200331528029837 13.936498749148251 6.863773417739607 13.365982760204572 6.863773417739607 C12.962324412258043 6.863773417739607 12.572837535190722 7.03113791280241 12.268379483398661 7.335229140170622 C12.268379483398661 7.335229140170622 7.772366060913812 11.822518184026634 7.772366060913812 11.822518184026634 C7.341279059652686 12.251446862630214 6.970077951461765 13.001386130124754 6.889163424183695 13.60499578444962 C6.849849021099435 13.893539490418553 6.052132353866485 20.781091470298232 15.49216053630798 30.225296160276653 C23.506355890612188 38.2409580016862 29.755517404121886 38.86377341773961 31.481236841832118 38.86377341773961 C31.481236841832118 38.86377341773961 31.481236841832118 38.86377341773961 31.481236841832118 38.86377341773961 C31.852437950023035 38.86377341773961 32.06866716698649 38.83725117535261 32.1102672911803 38.83130653481759 C32.71186908721384 38.75082524757428 33.46067132270243 38.380428414238544 33.88901545863211 37.95104245559382 C33.88901545863211 37.95104245559382 38.38137172734167 33.4578087712028 38.38137172734167 33.4578087712028 C38.748001393313494 33.08924105803168 38.91531617853254 32.602237814201416 38.83897309347357 32.11797825061804 Z" style="stroke-width: 0; stroke-linecap: butt; stroke-linejoin: miter; fill: rgb(2, 164, 170);"/></g></g></svg>