<?xml version="1.0" standalone="no"?>
<svg version="1.2" xmlns="http://www.w3.org/2000/svg" xmlns:xlink="http://www.w3.org/1999/xlink" overflow="visible" preserveAspectRatio="none" viewBox="0 0 1202 1202" height="40" width="40" id="Layer_1_1595584215712"><g transform="translate(1, 1)"><defs><style>.cls-1_1595584215712{fill:#f39429;}.cls-2_1595584215712,.cls-3_1595584215712{fill:#603611;}.cls-2_1595584215712{opacity:0.25;}.cls-4_1595584215712{isolation:isolate;}</style></defs><path d="M638.14,39h35a527.84,527.84,0,0,1,505.76,488v31.52a496.23,496.23,0,0,1-56.62,231.21,549.43,549.43,0,0,1-723.71,232.85,40.8,40.8,0,0,0-30.35-2.13L56.85,1120.82l103-298.6a40.85,40.85,0,0,0-2.43-32.28,496.33,496.33,0,0,1-56.75-231.32A517.83,517.83,0,0,1,398.09,94.49l.5-.24A547.49,547.49,0,0,1,638.14,39" class="cls-1_1595584215712" vector-effect="non-scaling-stroke"/><g id="Group_74_1595584215712"><path d="M567.94,1077.39,340.5,850l131.81-65.88,57.06-236.66,95.08-279.86L859.44,397l304.25,304.25s-124.15,379.58-512.94,379.58Z" class="cls-2_1595584215712" vector-effect="non-scaling-stroke"/><path d="M631.42,57h33.73a509.26,509.26,0,0,1,487.93,470.83v30.4a478.66,478.66,0,0,1-54.63,223.06,530.06,530.06,0,0,1-698.19,224.64,39.47,39.47,0,0,0-29.28-2.06L70.63,1100.59,170,812.53a39.44,39.44,0,0,0-2.36-31.14A478.82,478.82,0,0,1,112.9,558.22,499.6,499.6,0,0,1,399.83,110.46l.48-.23A528,528,0,0,1,631.42,57m0-39.39A567.41,567.41,0,0,0,383.06,74.81,539,539,0,0,0,73.5,558a518.29,518.29,0,0,0,59.25,241.65L7.68,1162.26l375.38-120.93a567.82,567.82,0,0,0,248.45,57.28c203,0,398.9-108.84,501.72-298.84a518.36,518.36,0,0,0,59.25-241.66V526.34c-20.29-279-247.07-498.08-526.56-508.77h-34.5Z" class="cls-3_1595584215712" id="Icon_feather-message-circle_1595584215712" vector-effect="non-scaling-stroke"/><g class="cls-4_1595584215712" id="_2_1595584215712"><g class="cls-4_1595584215712"><path d="M576.19,603.12l-7.29,63q-6.85,46.71-43.28,82.28l274.25-1.71L781.45,850H340.5L358.93,747.1l32.13.86q20.58-8.13,32.14-25.5t17.57-52.92l9-66.42H382.06L399.63,502h64.28l11.57-94.7q11.14-89.13,69.42-140.13t144-49.28q81.84,1.71,127.05,49.71T859.44,397l-120-.43q2.14-74.56-58.28-75.85-30-.86-51.63,21.86t-28.07,61.71L589.9,502H718.46L700.89,603.12Z" class="cls-3_1595584215712" vector-effect="non-scaling-stroke"/></g></g></g></g></svg>