<?xml version="1.0" standalone="no"?>
<svg version="1.2" xmlns="http://www.w3.org/2000/svg" xmlns:xlink="http://www.w3.org/1999/xlink" overflow="visible" preserveAspectRatio="none" viewBox="0 0 24 24" width="32" height="32"><g><path xmlns:default="http://www.w3.org/2000/svg" id="toggle-on" d="M1.87,14.59c0.67,1.61,1.94,2.88,3.55,3.55c0.82,0.35,1.69,0.52,2.58,0.52h8c0.89,0,1.77-0.18,2.59-0.53  c1.61-0.67,2.88-1.94,3.55-3.55c0.71-1.65,0.71-3.52,0-5.17c-0.67-1.61-1.94-2.88-3.55-3.55c-0.82-0.35-1.7-0.53-2.59-0.52H8  c-0.89,0-1.77,0.18-2.59,0.53c-1.6,0.67-2.87,1.94-3.54,3.54C1.16,11.06,1.16,12.94,1.87,14.59z M16,17.33  c-0.71,0-1.42-0.14-2.07-0.42c-1.28-0.54-2.3-1.56-2.84-2.84c-0.56-1.32-0.56-2.81,0-4.13c0.54-1.28,1.56-2.3,2.84-2.84  c1.32-0.56,2.81-0.56,4.13,0c1.28,0.54,2.3,1.56,2.84,2.84c0.56,1.32,0.56,2.81,0,4.13c-0.54,1.28-1.56,2.3-2.84,2.84  C17.4,17.19,16.7,17.33,16,17.33L16,17.33L16,17.33z" style="fill: rgb(2, 164, 170);"/></g></svg>