<?xml version="1.0" standalone="no"?>
<svg version="1.2" xmlns="http://www.w3.org/2000/svg" xmlns:xlink="http://www.w3.org/1999/xlink" overflow="visible" preserveAspectRatio="none" viewBox="0 0 24 24" width="32" height="32"><g><path xmlns:default="http://www.w3.org/2000/svg" id="toggle-off" d="M12.91,14.07c-0.54,1.28-1.56,2.3-2.84,2.84c-1.32,0.56-2.81,0.56-4.13,0c-1.28-0.54-2.3-1.56-2.84-2.84  c-0.56-1.32-0.56-2.81,0-4.13c0.53-1.29,1.55-2.31,2.84-2.85c1.32-0.56,2.81-0.56,4.13,0c1.28,0.54,2.3,1.56,2.84,2.84  C13.47,11.25,13.47,12.75,12.91,14.07z M21.33,12c0,0.71-0.14,1.42-0.42,2.07c-0.54,1.28-1.56,2.3-2.84,2.84  c-0.65,0.28-1.36,0.42-2.07,0.42h-4c0.83-0.61,1.52-1.41,2-2.33c0.97-1.88,0.97-4.12,0-6c-0.48-0.92-1.17-1.72-2-2.33h4  c0.71,0,1.42,0.14,2.07,0.42c1.28,0.54,2.3,1.56,2.84,2.84C21.19,10.58,21.33,11.29,21.33,12L21.33,12z M22.13,9.41  c-0.67-1.61-1.94-2.88-3.55-3.55C17.76,5.51,16.88,5.34,16,5.34H8c-0.89,0-1.77,0.18-2.59,0.53c-1.6,0.67-2.87,1.94-3.54,3.54  c-0.71,1.65-0.71,3.52,0,5.17c0.67,1.61,1.94,2.88,3.55,3.55c0.81,0.35,1.69,0.53,2.58,0.53h8c0.89,0,1.77-0.18,2.59-0.53  c1.61-0.67,2.88-1.94,3.55-3.55C22.84,12.93,22.84,11.06,22.13,9.41z" style="fill: rgb(2, 164, 170);"/></g></svg>