<svg version="1.2" xmlns="http://www.w3.org/2000/svg" xmlns:xlink="http://www.w3.org/1999/xlink" overflow="visible" preserveAspectRatio="none" viewBox="0 0 1585.300048828125 2290.39990234375" xml:space="preserve" y="0px" x="0px" id="Layer_1_1594823270831" width="28" height="40"><g transform="translate(1, 1)"><style type="text/css">
	.st0_1594823270831{fill:#FFFFFF;}
</style><g>
	<g>
		<path d="M1457.1,1085.2c-83.6,51.5-167.7,102.3-252,152.6c-68,41-136.6,80.9-204.9,121.4L818,1465.3l-15.7,9.1h0    l-0.1,18.2l-0.8,210.9c-0.9,79.4-1.2,158.8-2.6,238.2c-1.4,98.2-3.3,196.4-6.1,294.6c28.1-1,56-8.7,81.2-23.2l516.3-298.1    c25.2-14.6,45.9-34.9,60.8-58.8c1.1-1.7,2.2-3.5,3.3-5.2c1-1.8,1.9-3.6,2.9-5.4c13.2-24.9,20.5-52.9,20.5-82v-596.2    C1477.7,1138.1,1470.4,1110,1457.1,1085.2z" class="st0_1594823270831" vector-effect="non-scaling-stroke"/>
		<path d="M774.1,1941.6c-1.5-79.4-1.8-158.8-2.6-238.2l-0.8-210.9l-0.1-18.2l0,0l-15.7-9.1l-182.2-106.1    c-68.3-40.5-136.9-80.4-204.9-121.4c-84.3-50.3-168.4-101.1-252-152.7c-13.2,24.9-20.5,52.9-20.5,82v596.2    c0,29.1,7.3,57.1,20.5,82c1,1.8,1.9,3.7,2.9,5.5c1,1.8,2.2,3.5,3.3,5.3c14.9,23.9,35.5,44.2,60.8,58.8L699,2213    c25.2,14.5,53.1,22.2,81.2,23.2C777.4,2138,775.5,2039.8,774.1,1941.6z" class="st0_1594823270831" vector-effect="non-scaling-stroke"/>
		<g>
			<g>
				<polygon points="863,590.8 863,946.9 1176,768.9" class="st0_1594823270831" vector-effect="non-scaling-stroke"/>
				<polygon points="1465.2,734.3 1465.2,977.1 1251.7,855.7" class="st0_1594823270831" vector-effect="non-scaling-stroke"/>
				<polygon points="1176,417.3 1176,660.1 962.6,538.7" class="st0_1594823270831" vector-effect="non-scaling-stroke"/>
				<polygon points="1521.9,377.5 1521.9,474.9 1436.3,426.2" class="st0_1594823270831" vector-effect="non-scaling-stroke"/>
				<polygon points="696.4,363.8 696.4,553.3 863,458.5" class="st0_1594823270831" vector-effect="non-scaling-stroke"/>
				<polygon points="1031,203 1031,348 1158.4,275.5" class="st0_1594823270831" vector-effect="non-scaling-stroke"/>
				<polygon points="1304.9,522.3 1304.9,653 1419.7,587.6" class="st0_1594823270831" vector-effect="non-scaling-stroke"/>
			</g>
		</g>
		<path d="M1390.2,1015.7l-253.4-146.3l-341.9,194.5V694.5c-0.7,0-1.5-0.1-2.2-0.1c-2.1-0.1-4.2-0.2-6.3-0.2    c-2.1,0-4.2,0.1-6.3,0.2c-28.1,1-56,8.7-81.2,23.2l-516.3,298.1c-25.2,14.6-45.8,34.9-60.8,58.8c86.4,46.7,172.4,94.1,258.2,141.9    c69.5,38.4,138.4,77.9,207.6,116.8l183,104.8l15.8,9l0,0l15.8-9l183-104.8c69.2-39,138.1-78.4,207.6-116.8    c85.8-47.8,171.8-95.2,258.2-141.9C1436.1,1050.6,1415.4,1030.3,1390.2,1015.7z" class="st0_1594823270831" vector-effect="non-scaling-stroke"/>
	</g>
</g></g></svg>